<!DOCTYPE svg PUBLIC "-//W3C//DTD SVG 1.1//EN" "http://www.w3.org/Graphics/SVG/1.1/DTD/svg11.dtd">

<!-- Uploaded to: SVG Repo, www.svgrepo.com, Transformed by: SVG Repo Mixer Tools -->
<svg fill="#ffffff" height="64px" width="64px" version="1.1" id="Layer_1" xmlns="http://www.w3.org/2000/svg" xmlns:xlink="http://www.w3.org/1999/xlink" viewBox="0 0 512.002 512.002" xml:space="preserve">

<g id="SVGRepo_bgCarrier" stroke-width="0"/>

<g id="SVGRepo_tracerCarrier" stroke-linecap="round" stroke-linejoin="round"/>

<g id="SVGRepo_iconCarrier"> <g> <g> <path d="M502.893,344.816l-96.13-96.129c-1.102-1.101-2.503-1.851-4.03-2.156l-27.396-5.48l-18.557-18.558 c-3.08-3.079-8.072-3.079-11.151,0c-3.079,3.079-3.079,8.071,0,11.15l14.67,14.671l-12.638,12.638l-83.249-83.25 c1.79-2.269,3.747-4.516,5.936-6.703c1.237-1.237,3.52-3.384,6.752-5.884l45.865,45.863c1.54,1.539,3.559,2.31,5.576,2.31 c2.017,0,4.036-0.77,5.576-2.31c3.079-3.079,3.079-8.072,0-11.15l-43.343-43.342c5.331-2.695,11.563-5.124,18.592-6.684 l5.835,5.835c4.468,4.468,10.408,6.928,16.727,6.928s12.259-2.461,16.727-6.928l25.276-25.275c9.222-9.223,9.221-24.23,0-33.452 l-85.244-85.244c-4.468-4.468-10.408-6.928-16.727-6.928s-12.259,2.46-16.727,6.928l-25.276,25.276 c-9.221,9.222-9.221,24.23,0,33.452l5.833,5.833c-4.706,21.185-17.302,35.125-21.196,39.02 c-10.679,10.681-23.839,17.779-39.114,21.101l-5.738-5.738c-9.222-9.222-24.231-9.221-33.453,0l-25.274,25.275 c-4.468,4.468-6.929,10.408-6.929,16.727s2.461,12.26,6.928,16.727l38.002,38.002c3.079,3.079,8.071,3.079,11.151,0 c3.079-3.079,3.079-8.072,0-11.15l-38.002-38.002c-1.489-1.49-2.309-3.469-2.309-5.575s0.82-4.085,2.31-5.575l25.274-25.275 c3.074-3.074,8.076-3.076,11.151,0l85.244,85.244c1.489,1.49,2.309,3.469,2.309,5.575c0,2.106-0.82,4.087-2.31,5.576 l-25.274,25.275c-3.075,3.073-8.077,3.075-11.151,0l-24.14-24.14c-3.08-3.079-8.072-3.079-11.151,0s-3.079,8.072,0,11.15 l24.138,24.137c4.611,4.611,10.668,6.917,16.726,6.917c6.059,0,12.116-2.306,16.728-6.917l25.274-25.275 c4.468-4.468,6.929-10.408,6.929-16.728c0-6.318-2.461-12.259-6.928-16.727l-5.735-5.735c1.2-5.5,3.213-11.99,6.537-18.738 l84.002,84.003c0.191,0.191,0.39,0.371,0.596,0.538l5.493,27.466c0.306,1.527,1.056,2.929,2.156,4.03l96.132,96.131 c4.611,4.611,10.668,6.917,16.726,6.917c6.059,0,12.116-2.306,16.728-6.917l25.274-25.275c4.468-4.468,6.929-10.408,6.929-16.728 C509.822,355.224,507.36,349.284,502.893,344.816z M241.107,48.09l25.276-25.276c1.489-1.49,3.468-2.309,5.575-2.309 s4.086,0.82,5.575,2.309l85.244,85.244c3.074,3.074,3.074,8.076,0,11.15l-25.276,25.276c-1.489,1.49-3.469,2.31-5.575,2.31 s-4.087-0.82-5.575-2.31L241.107,59.24C238.033,56.167,238.033,51.165,241.107,48.09z M236.405,197.274l-48.089-48.089 c14.22-4.617,27.021-12.385,37.426-22.79c5.187-5.187,16.403-18.029,22.845-37.369L296.562,137 c-19.389,6.461-32.236,17.717-37.367,22.849C246.977,172.066,240.182,185.64,236.405,197.274z M491.743,367.119l-25.275,25.276 c-3.075,3.073-8.077,3.076-11.151,0l-94.442-94.442l-4.652-23.258l17.821-17.821l23.258,4.652l94.442,94.442 c1.489,1.49,2.309,3.469,2.309,5.575C494.053,363.65,493.232,365.631,491.743,367.119z"/> </g> </g> <g> <g> <path d="M159.277,360.011c4.356,0,7.885-3.53,7.885-7.885s-3.529-7.885-7.885-7.885h-21.552v-8.936 c0-4.355-3.529-7.885-7.885-7.885s-7.885,3.53-7.885,7.885v8.936h-6.834c-10.144,0-18.398,8.254-18.398,18.398v16.821 c0,10.144,8.254,18.398,18.398,18.398h6.834v22.078h-21.552c-4.356,0-7.885,3.53-7.885,7.885s3.529,7.885,7.885,7.885h21.552 v8.936c0,4.355,3.529,7.885,7.885,7.885s7.885-3.53,7.885-7.885v-8.936h6.834c10.144,0,18.398-8.254,18.398-18.398v-16.821 c0-10.144-8.254-18.398-18.398-18.398h-6.834v-22.078H159.277z M121.955,382.089h-6.834c-1.45,0-2.628-1.18-2.628-2.628V362.64 c0-1.449,1.179-2.628,2.628-2.628h6.834V382.089z M144.559,397.859c1.45,0,2.628,1.18,2.628,2.628v16.821 c0,1.449-1.179,2.628-2.628,2.628h-6.834v-22.078H144.559z"/> </g> </g> <g> <g> <path d="M397.917,436.827c-5.353-0.711-18.843-3.691-28.475-15.972c-6.844-8.731-8.486-18.201-8.857-23.067 c-0.312-4.112-3.74-7.288-7.863-7.288s-7.551,3.176-7.863,7.288c-0.37,4.867-2.012,14.336-8.856,23.067 c-9.632,12.281-23.123,15.262-28.475,15.973c-3.919,0.52-6.847,3.863-6.847,7.817s2.928,7.295,6.847,7.817 c5.353,0.711,18.843,3.691,28.475,15.972c6.844,8.731,8.486,18.201,8.856,23.067c0.312,4.112,3.74,7.288,7.863,7.288 s7.551-3.176,7.863-7.288c0.37-4.867,2.012-14.336,8.855-23.066c9.633-12.283,23.123-15.263,28.476-15.974 c3.919-0.52,6.847-3.863,6.847-7.817C404.764,440.69,401.836,437.347,397.917,436.827z M357.031,458.703 c-1.64,2.092-3.068,4.206-4.308,6.315c-1.242-2.109-2.668-4.224-4.309-6.316c-4.949-6.309-10.615-10.826-16.15-14.058 c5.535-3.232,11.201-7.748,16.15-14.058c0.001,0,0.001-0.001,0.001-0.001c1.64-2.092,3.068-4.207,4.308-6.315 c1.242,2.109,2.668,4.224,4.309,6.316c4.949,6.309,10.615,10.826,16.15,14.058C367.646,447.876,361.98,452.393,357.031,458.703z"/> </g> </g> <g> <g> <path d="M505.155,85.679c-5.353-0.711-18.843-3.691-28.475-15.972c-6.844-8.731-8.486-18.201-8.856-23.067 c-0.312-4.112-3.74-7.288-7.863-7.288c-4.123,0-7.551,3.176-7.863,7.288c-0.37,4.867-2.012,14.336-8.856,23.067 c-9.632,12.281-23.123,15.262-28.475,15.973c-3.919,0.52-6.847,3.863-6.847,7.817c0,3.954,2.928,7.296,6.847,7.817 c5.353,0.711,18.843,3.691,28.475,15.972c6.844,8.731,8.486,18.201,8.856,23.067c0.312,4.112,3.74,7.288,7.863,7.288 c4.123,0,7.551-3.176,7.863-7.288c0.37-4.867,2.012-14.336,8.855-23.066c9.633-12.283,23.123-15.263,28.476-15.974 c3.919-0.52,6.847-3.863,6.847-7.817C512.002,89.542,509.074,86.201,505.155,85.679z M464.267,107.557 c-1.64,2.092-3.068,4.206-4.308,6.315c-1.242-2.109-2.668-4.224-4.309-6.316c-4.949-6.309-10.615-10.826-16.15-14.058 c5.535-3.232,11.201-7.748,16.15-14.058c1.641-2.093,3.069-4.208,4.309-6.316c1.242,2.109,2.668,4.224,4.309,6.316 c4.949,6.309,10.615,10.826,16.15,14.058C474.883,96.731,469.216,101.247,464.267,107.557z"/> </g> </g> <g> <g> <path d="M97.235,56.244c-5.353-0.711-18.843-3.691-28.475-15.972c-6.844-8.731-8.486-18.201-8.856-23.067 c-0.312-4.112-3.74-7.288-7.863-7.288c-4.123,0-7.551,3.176-7.863,7.288c-0.37,4.867-2.012,14.336-8.856,23.067 C25.69,52.553,12.2,55.533,6.847,56.244C2.928,56.764,0,60.107,0,64.06s2.928,7.295,6.847,7.817 c5.352,0.711,18.843,3.69,28.475,15.972c6.844,8.731,8.486,18.201,8.856,23.067c0.312,4.112,3.74,7.288,7.863,7.288 s7.551-3.176,7.863-7.288c0.37-4.867,2.012-14.336,8.855-23.066c9.633-12.283,23.123-15.263,28.476-15.974 c3.917-0.52,6.845-3.863,6.845-7.816S101.154,56.765,97.235,56.244z M56.349,78.12c-1.64,2.092-3.068,4.206-4.308,6.315 c-1.242-2.109-2.668-4.224-4.309-6.316c-4.949-6.309-10.615-10.826-16.15-14.058c5.535-3.232,11.201-7.748,16.15-14.058 c1.641-2.093,3.069-4.208,4.309-6.316c1.242,2.109,2.668,4.224,4.309,6.316c4.949,6.309,10.615,10.826,16.15,14.058 C66.965,67.293,61.298,71.81,56.349,78.12z"/> </g> </g> <g> <g> <path d="M247.011,376.454c-0.336-2.92-2.269-5.41-5.014-6.46l-26.648-10.198l14.344-24.664c1.477-2.541,1.419-5.693-0.151-8.177 s-4.404-3.89-7.321-3.645l-28.432,2.374l2.22-28.446c0.229-2.93-1.191-5.745-3.684-7.302c-2.494-1.556-5.646-1.598-8.177-0.107 l-24.589,14.476l-10.34-26.592c-1.066-2.739-3.566-4.658-6.487-4.98c-2.932-0.326-5.78,1.009-7.415,3.451l-15.873,23.71 l-20.855-19.472c-2.148-2.007-5.236-2.65-8.005-1.672c-2.772,0.978-4.769,3.417-5.183,6.327l-4.012,28.248l-27.237-8.495 c-2.807-0.875-5.866-0.117-7.939,1.967c-2.073,2.084-2.814,5.147-1.924,7.949l8.641,27.192l-28.227,4.163 c-2.908,0.429-5.334,2.44-6.299,5.217c-0.963,2.777-0.302,5.859,1.716,7.995l19.583,20.75l-23.625,15.999 c-2.434,1.647-3.749,4.512-3.412,7.433c0.336,2.92,2.269,5.41,5.015,6.46l26.648,10.198l-14.344,24.664 c-1.477,2.541-1.419,5.693,0.151,8.177c1.571,2.484,4.402,3.889,7.321,3.645l28.432-2.374l-2.22,28.446 c-0.229,2.93,1.191,5.745,3.684,7.302c2.494,1.557,5.646,1.597,8.177,0.107l24.589-14.476l10.34,26.592 c1.066,2.739,3.566,4.658,6.487,4.98c0.289,0.032,0.577,0.047,0.863,0.047c2.612,0,5.078-1.297,6.551-3.499l15.873-23.71 l20.855,19.472c2.148,2.007,5.235,2.649,8.005,1.672c2.772-0.978,4.769-3.417,5.183-6.327l4.012-28.248l27.237,8.495 c2.807,0.876,5.866,0.118,7.939-1.967c2.073-2.084,2.814-5.147,1.924-7.949l-8.641-27.192l28.227-4.163 c2.908-0.429,5.334-2.44,6.299-5.217c0.963-2.777,0.302-5.859-1.716-7.995l-19.583-20.75l23.625-15.999 C246.033,382.24,247.349,379.375,247.011,376.454z M203.456,392.026c-1.914,1.296-3.165,3.368-3.417,5.667 s0.516,4.592,2.104,6.274l15.561,16.488l-22.429,3.309c-2.288,0.338-4.313,1.662-5.537,3.624 c-1.225,1.961-1.527,4.361-0.826,6.566l6.865,21.607l-21.643-6.75c-2.207-0.688-4.605-0.373-6.56,0.862 c-1.954,1.235-3.269,3.266-3.595,5.556l-3.188,22.446l-16.572-15.473c-1.689-1.577-3.979-2.335-6.285-2.07 c-2.298,0.265-4.362,1.525-5.649,3.446l-12.612,18.84l-8.216-21.131c-0.838-2.155-2.58-3.833-4.765-4.592 c-0.841-0.291-1.714-0.435-2.584-0.435c-1.391,0-2.774,0.368-4,1.09L80.57,468.854l1.765-22.604c0.18-2.306-0.661-4.574-2.3-6.204 s-3.901-2.457-6.217-2.268l-22.592,1.886l11.398-19.599c1.162-1.999,1.389-4.407,0.619-6.589c-0.769-2.18-2.457-3.913-4.617-4.739 l-21.175-8.104l18.772-12.713c1.914-1.296,3.164-3.368,3.417-5.667c0.252-2.298-0.516-4.592-2.104-6.274l-15.56-16.487 l22.429-3.309c2.288-0.338,4.313-1.662,5.537-3.624c1.225-1.961,1.527-4.361,0.826-6.566l-6.865-21.607l21.643,6.75 c2.209,0.689,4.606,0.374,6.56-0.862c1.954-1.235,3.269-3.266,3.595-5.556l3.188-22.446l16.572,15.473 c1.689,1.577,3.983,2.338,6.285,2.07c2.298-0.265,4.362-1.525,5.649-3.446l12.612-18.84l8.216,21.131 c0.838,2.155,2.58,3.833,4.765,4.592c2.185,0.757,4.59,0.519,6.585-0.655l19.538-11.503l-1.765,22.604 c-0.18,2.306,0.661,4.574,2.3,6.204c1.639,1.631,3.9,2.457,6.217,2.268l22.592-1.886l-11.398,19.599 c-1.162,1.999-1.389,4.407-0.619,6.589c0.768,2.18,2.457,3.913,4.617,4.739l21.175,8.104L203.456,392.026z"/> </g> </g> </g>

</svg>
