<svg width="1000" height="1000" viewBox="0 0 1000 1000" fill="none" xmlns="http://www.w3.org/2000/svg">
<rect width="1000" height="1000" fill="white"/>
<path opacity="0.2" d="M355.703 638.75V707H353.172L309.109 643.062V707H306.531V638.75H309.109L353.172 702.547V638.75H355.703ZM369.344 682.625V680.656C369.344 676.938 369.875 673.531 370.938 670.438C372.031 667.344 373.547 664.672 375.484 662.422C377.453 660.172 379.797 658.438 382.516 657.219C385.234 655.969 388.234 655.344 391.516 655.344C394.828 655.344 397.844 655.969 400.562 657.219C403.281 658.438 405.625 660.172 407.594 662.422C409.562 664.672 411.078 667.344 412.141 670.438C413.203 673.531 413.734 676.938 413.734 680.656V682.625C413.734 686.344 413.203 689.75 412.141 692.844C411.078 695.938 409.562 698.609 407.594 700.859C405.656 703.109 403.328 704.859 400.609 706.109C397.891 707.328 394.891 707.938 391.609 707.938C388.297 707.938 385.281 707.328 382.562 706.109C379.844 704.859 377.5 703.109 375.531 700.859C373.562 698.609 372.031 695.938 370.938 692.844C369.875 689.75 369.344 686.344 369.344 682.625ZM371.875 680.656V682.625C371.875 685.656 372.312 688.547 373.188 691.297C374.094 694.016 375.391 696.438 377.078 698.562C378.766 700.688 380.828 702.359 383.266 703.578C385.703 704.797 388.484 705.406 391.609 705.406C394.703 705.406 397.453 704.797 399.859 703.578C402.297 702.359 404.359 700.688 406.047 698.562C407.734 696.438 409.016 694.016 409.891 691.297C410.766 688.547 411.203 685.656 411.203 682.625V680.656C411.203 677.688 410.766 674.844 409.891 672.125C409.016 669.406 407.719 666.984 406 664.859C404.312 662.703 402.25 661 399.812 659.75C397.375 658.5 394.609 657.875 391.516 657.875C388.422 657.875 385.656 658.5 383.219 659.75C380.812 661 378.75 662.703 377.031 664.859C375.344 666.984 374.062 669.406 373.188 672.125C372.312 674.844 371.875 677.688 371.875 680.656ZM454.75 638.75V707H452.219V638.75H454.75ZM476.125 667.156V707H473.547V656.281H476.125V667.156ZM475.797 677.281L474.438 674.609C474.75 672.109 475.422 669.719 476.453 667.438C477.516 665.125 478.891 663.062 480.578 661.25C482.297 659.438 484.281 658 486.531 656.938C488.812 655.875 491.328 655.344 494.078 655.344C496.641 655.344 498.922 655.688 500.922 656.375C502.953 657.031 504.656 658.078 506.031 659.516C507.438 660.922 508.5 662.766 509.219 665.047C509.969 667.328 510.344 670.062 510.344 673.25V707H507.812V673.25C507.812 669.188 507.219 666.047 506.031 663.828C504.844 661.609 503.203 660.062 501.109 659.188C499.016 658.281 496.625 657.828 493.938 657.828C490.75 657.828 488.031 658.547 485.781 659.984C483.531 661.391 481.688 663.156 480.25 665.281C478.812 667.406 477.734 669.562 477.016 671.75C476.297 673.938 475.891 675.781 475.797 677.281ZM510.344 673.25L508.609 671.703C508.922 669.547 509.609 667.5 510.672 665.562C511.766 663.594 513.172 661.844 514.891 660.312C516.609 658.781 518.609 657.578 520.891 656.703C523.203 655.797 525.734 655.344 528.484 655.344C531.047 655.344 533.328 655.703 535.328 656.422C537.359 657.109 539.062 658.219 540.438 659.75C541.844 661.25 542.906 663.188 543.625 665.562C544.375 667.938 544.75 670.812 544.75 674.188V707H542.219V674.188C542.219 669.875 541.625 666.531 540.438 664.156C539.25 661.781 537.609 660.125 535.516 659.188C533.422 658.25 531.031 657.797 528.344 657.828C525.344 657.859 522.734 658.422 520.516 659.516C518.328 660.578 516.5 661.922 515.031 663.547C513.562 665.172 512.438 666.859 511.656 668.609C510.906 670.328 510.469 671.875 510.344 673.25ZM591.953 697.484V671.281C591.953 668.469 591.344 666.062 590.125 664.062C588.938 662.062 587.188 660.531 584.875 659.469C582.594 658.406 579.797 657.875 576.484 657.875C573.422 657.875 570.656 658.422 568.188 659.516C565.75 660.578 563.812 662.047 562.375 663.922C560.969 665.797 560.266 667.906 560.266 670.25L557.734 670.156C557.734 668.188 558.188 666.312 559.094 664.531C560.031 662.75 561.328 661.172 562.984 659.797C564.672 658.422 566.656 657.344 568.938 656.562C571.25 655.75 573.766 655.344 576.484 655.344C580.016 655.344 583.125 655.938 585.812 657.125C588.531 658.312 590.656 660.094 592.188 662.469C593.719 664.844 594.484 667.812 594.484 671.375V696.781C594.484 698.594 594.594 700.422 594.812 702.266C595.062 704.109 595.391 705.547 595.797 706.578V707H592.891C592.578 705.781 592.344 704.312 592.188 702.594C592.031 700.844 591.953 699.141 591.953 697.484ZM593.078 678.688L593.172 681.266H579.953C576.672 681.266 573.734 681.594 571.141 682.25C568.547 682.875 566.344 683.766 564.531 684.922C562.719 686.078 561.328 687.453 560.359 689.047C559.391 690.641 558.906 692.406 558.906 694.344C558.906 696.375 559.453 698.234 560.547 699.922C561.672 701.609 563.219 702.953 565.188 703.953C567.156 704.953 569.422 705.453 571.984 705.453C575.547 705.453 578.703 704.875 581.453 703.719C584.203 702.531 586.531 700.875 588.438 698.75C590.344 696.625 591.797 694.109 592.797 691.203L593.922 693.547C593.328 695.297 592.438 697.031 591.25 698.75C590.094 700.438 588.609 701.984 586.797 703.391C584.984 704.766 582.844 705.875 580.375 706.719C577.938 707.531 575.141 707.938 571.984 707.938C568.828 707.938 566.078 707.359 563.734 706.203C561.391 705.016 559.578 703.391 558.297 701.328C557.016 699.234 556.375 696.844 556.375 694.156C556.375 691.906 556.906 689.844 557.969 687.969C559.031 686.062 560.562 684.422 562.562 683.047C564.594 681.641 567.062 680.562 569.969 679.812C572.875 679.062 576.156 678.688 579.812 678.688H593.078ZM644.734 656.281H647.312V706.297C647.312 710.609 646.547 714.344 645.016 717.5C643.484 720.688 641.281 723.141 638.406 724.859C635.562 726.578 632.141 727.438 628.141 727.438C625.672 727.438 623.406 727.078 621.344 726.359C619.312 725.641 617.469 724.625 615.812 723.312C614.188 722.031 612.766 720.562 611.547 718.906L613.328 717.219C615.297 719.688 617.453 721.594 619.797 722.938C622.172 724.281 624.922 724.953 628.047 724.953C631.734 724.953 634.812 724.188 637.281 722.656C639.75 721.125 641.609 718.953 642.859 716.141C644.109 713.359 644.734 710.078 644.734 706.297V667.438V656.281ZM608.453 682.109V681.125C608.453 677.125 608.875 673.547 609.719 670.391C610.594 667.203 611.844 664.5 613.469 662.281C615.125 660.031 617.141 658.312 619.516 657.125C621.891 655.938 624.578 655.344 627.578 655.344C630.328 655.344 632.781 655.766 634.938 656.609C637.125 657.453 639.031 658.641 640.656 660.172C642.281 661.672 643.625 663.438 644.688 665.469C645.75 667.5 646.562 669.703 647.125 672.078V692.75C646.719 694.75 646 696.672 644.969 698.516C643.969 700.328 642.641 701.953 640.984 703.391C639.359 704.797 637.422 705.906 635.172 706.719C632.922 707.531 630.359 707.938 627.484 707.938C624.484 707.938 621.797 707.328 619.422 706.109C617.078 704.859 615.094 703.094 613.469 700.812C611.844 698.531 610.594 695.812 609.719 692.656C608.875 689.5 608.453 685.984 608.453 682.109ZM611.031 681.125V682.109C611.031 685.484 611.359 688.594 612.016 691.438C612.703 694.281 613.719 696.75 615.062 698.844C616.438 700.906 618.156 702.516 620.219 703.672C622.281 704.828 624.688 705.406 627.438 705.406C631 705.406 634.016 704.781 636.484 703.531C638.953 702.281 640.922 700.609 642.391 698.516C643.859 696.422 644.875 694.109 645.438 691.578V673.766C645.094 672.203 644.562 670.516 643.844 668.703C643.125 666.859 642.094 665.125 640.75 663.5C639.406 661.844 637.656 660.5 635.5 659.469C633.375 658.406 630.719 657.875 627.531 657.875C624.75 657.875 622.312 658.453 620.219 659.609C618.156 660.766 616.438 662.391 615.062 664.484C613.719 666.547 612.703 669 612.016 671.844C611.359 674.656 611.031 677.75 611.031 681.125ZM681.766 707.938C678.672 707.938 675.781 707.328 673.094 706.109C670.406 704.859 668.047 703.109 666.016 700.859C663.984 698.609 662.391 695.953 661.234 692.891C660.109 689.797 659.547 686.406 659.547 682.719V680.656C659.547 676.938 660.094 673.547 661.188 670.484C662.312 667.391 663.844 664.719 665.781 662.469C667.75 660.188 670.016 658.438 672.578 657.219C675.141 655.969 677.891 655.344 680.828 655.344C683.641 655.344 686.219 655.875 688.562 656.938C690.906 657.969 692.938 659.438 694.656 661.344C696.406 663.25 697.75 665.531 698.688 668.188C699.625 670.844 700.094 673.781 700.094 677V679.953H661.188V677.422H697.562V676.812C697.562 673.406 696.875 670.281 695.5 667.438C694.125 664.562 692.188 662.25 689.688 660.5C687.188 658.75 684.234 657.875 680.828 657.875C678.016 657.875 675.453 658.469 673.141 659.656C670.859 660.844 668.891 662.484 667.234 664.578C665.578 666.641 664.297 669.047 663.391 671.797C662.516 674.547 662.078 677.5 662.078 680.656V682.719C662.078 685.875 662.578 688.828 663.578 691.578C664.578 694.328 665.969 696.75 667.75 698.844C669.531 700.906 671.609 702.531 673.984 703.719C676.391 704.875 678.984 705.453 681.766 705.453C684.672 705.453 687.375 704.969 689.875 704C692.406 703.031 694.719 701.188 696.812 698.469L698.594 699.734C697.469 701.328 696.109 702.75 694.516 704C692.953 705.219 691.109 706.188 688.984 706.906C686.891 707.594 684.484 707.938 681.766 707.938Z" fill="#324844"/>
<path d="M444.333 599.556L494.818 510.237C497.267 505.903 499.419 502.097 501.344 498.73M501.344 498.73C507.311 488.295 511.106 482.078 514.898 477.413C546.292 438.783 602.279 431.151 642.867 459.969C649.308 464.542 656.472 471.695 670.717 485.939M501.344 498.73L491.556 495.667C468.973 491.15 457.682 488.892 447.319 489.112C419.586 489.701 393.514 502.453 376.022 523.982C369.486 532.027 364.337 542.326 354.038 562.924L351.963 567.073L349.676 570.938M670.717 485.939C671 472.254 671 456.737 671 439C671 368.172 671 332.758 652.963 307.931C647.137 299.914 640.086 292.863 632.069 287.037C607.242 269 571.828 269 501 269C430.172 269 394.758 269 369.931 287.037C361.914 292.863 354.863 299.914 349.037 307.931C331 332.758 331 368.172 331 439C331 509.828 331 545.242 349.037 570.069C349.249 570.36 349.462 570.649 349.676 570.938M670.717 485.939C669.869 526.902 666.483 551.46 652.963 570.069C647.137 578.086 640.086 585.137 632.069 590.963C607.242 609 571.828 609 501 609C430.172 609 394.758 609 369.931 590.963C362.205 585.349 355.376 578.597 349.676 570.938M444.333 382.333C444.333 403.197 461.247 420.111 482.111 420.111C502.975 420.111 519.889 403.197 519.889 382.333C519.889 361.469 502.975 344.556 482.111 344.556C461.247 344.556 444.333 361.469 444.333 382.333Z" stroke="#DDDEDE" stroke-width="8" stroke-linecap="round"/>
</svg>
